<svg width="21" height="29" viewBox="0 0 21 29" fill="none" xmlns="http://www.w3.org/2000/svg">
<path d="M10.4109 12.143C9.45467 12.143 8.67633 11.3646 8.67633 10.4096C8.67633 9.45346 9.45467 8.67511 10.4109 8.67511C11.367 8.67511 12.1442 9.45346 12.1442 10.4096C12.1442 11.3646 11.367 12.143 10.4109 12.143ZM10.4109 27.5187C8.65805 25.6489 0.99151 17.0701 0.99151 10.2355C0.99151 5.13783 5.21578 0.990292 10.4109 0.990292C15.6035 0.990292 19.8302 5.13783 19.8302 10.2355C19.8302 17.0701 12.1624 25.6489 10.4109 27.5187ZM10.4109 0C4.67009 0 0 4.59091 0 10.2355C0 18.321 9.64591 28.1691 10.0576 28.5857C10.1514 28.6795 10.2781 28.7319 10.4109 28.7319C10.5436 28.7319 10.6703 28.6795 10.7617 28.5857C11.1746 28.1691 20.8205 18.321 20.8205 10.2355C20.8205 4.59091 16.1516 0 10.4109 0ZM10.4109 7.68481C8.90776 7.68481 7.68603 8.90654 7.68603 10.4096C7.68603 11.9115 8.90776 13.1357 10.4109 13.1357C11.9127 13.1357 13.1345 11.9115 13.1345 10.4096C13.1345 8.90654 11.9127 7.68481 10.4109 7.68481Z" fill="#363636"/>
</svg>
