<svg width="36" height="32" viewBox="0 0 36 32" fill="none" xmlns="http://www.w3.org/2000/svg">
<path d="M25.95 1.42428C30.7031 1.42428 34.5656 5.24393 34.5656 9.96069C34.5656 12.3838 33.5437 14.5665 31.9125 16.1202L18 29.9746L3.84375 15.8705C2.3625 14.3353 1.44375 12.2543 1.44375 9.96069C1.44375 5.24393 5.29688 1.42428 10.0594 1.42428C13.6406 1.42428 16.7063 3.58844 18.0094 6.67746C19.2938 3.59769 22.3687 1.42428 25.95 1.42428ZM25.95 0C22.7812 0 19.875 1.46127 18 3.8659C16.125 1.46127 13.2188 0 10.05 0C4.50938 0 0 4.46705 0 9.96069C0 12.541 0.99375 14.9919 2.80313 16.8601L16.9781 30.9827L18 32L19.0219 30.9827L32.925 17.1283C34.8938 15.2509 36 12.6983 36 9.96069C36 4.46705 31.4906 0 25.95 0Z" fill="#363636"/>
</svg>
